<svg xmlns="http://www.w3.org/2000/svg" version="1.0" preserveAspectRatio="xMidYMid meet" viewBox="454.53 238.08 381.47 212.82">

<g transform="translate(0.000000,720.000000) scale(0.100000,-0.100000)" fill="#000000" stroke="none">
<path d="M6855 4774 c-1019 -165 -1206 -196 -1865 -311 -210 -37 -215 -39 -218 -63 -2 -14 15 -124 37 -245 22 -121 43 -244 47 -273 l7 -53 -117 2 c-65 1 -122 -3 -127 -8 -4 -4 -20 -157 -34 -338 -14 -182 -30 -374 -35 -428 -5 -55 -6 -105 -3 -113 4 -10 24 -14 72 -14 410 -1 1533 -70 2101 -130 52 -6 201 -21 330 -35 129 -13 287 -31 350 -40 291 -39 298 -39 313 -27 8 7 17 38 20 70 22 226 78 706 82 711 3 3 70 -5 148 -17 183 -28 189 -28 231 9 39 34 39 33 86 309 24 143 34 178 50 190 20 15 20 16 -19 54 l-40 39 45 58 c24 31 44 60 44 64 0 3 -31 3 -69 -1 l-70 -6 -6 28 c-4 16 -12 49 -18 73 l-12 43 -55 -51 -54 -50 -64 36 -65 35 8 -77 7 -78 -35 6 c-22 3 -37 1 -39 -5 -3 -8 -23 -7 -68 1 -36 6 -105 18 -155 27 -49 9 -94 19 -100 24 -5 4 -45 14 -88 20 -85 14 -97 10 -111 -37 -5 -15 -2 -23 11 -27 10 -3 155 -28 323 -56 501 -84 512 -86 527 -106 18 -24 18 -21 -22 -249 -39 -226 -47 -243 -115 -230 -19 4 -228 40 -464 79 -411 69 -431 73 -449 98 -19 25 -19 27 13 224 18 110 38 209 46 221 7 12 28 25 46 29 18 4 27 9 21 11 -7 3 -13 11 -13 18 0 8 -8 16 -19 20 -14 4 -21 23 -30 83 -74 468 -88 535 -110 531 -3 -1 -127 -21 -276 -45z m32 -159 c54 -23 92 -61 121 -125 22 -46 26 -70 26 -150 1 -80 -2 -102 -22 -138 -44 -83 -147 -132 -276 -132 -157 1 -248 98 -263 281 l-6 65 -61 -9 c-33 -5 -63 -11 -65 -13 -4 -3 9 -84 49 -314 6 -31 4 -48 -3 -56 -19 -17 -167 -38 -180 -25 -6 6 -23 88 -39 183 -16 95 -31 174 -33 176 -1 2 -32 -2 -69 -9 -72 -12 -72 -12 -45 -87 16 -43 10 -164 -10 -207 -43 -92 -137 -146 -268 -153 -75 -4 -88 -2 -138 23 -92 45 -145 148 -145 286 0 80 17 126 66 175 51 50 115 76 207 82 105 6 160 -10 215 -65 l43 -44 -6 48 c-4 26 -9 55 -11 65 -3 9 0 19 5 23 12 7 415 75 448 75 18 0 23 -9 34 -70 l12 -71 13 38 c27 77 91 132 184 158 65 18 161 13 217 -10z m-1447 -280 c7 -36 10 -68 7 -71 -3 -4 -43 -12 -89 -20 -130 -22 -128 -21 -128 -52 0 -51 9 -54 90 -37 41 9 80 13 86 11 7 -3 18 -30 24 -62 14 -68 15 -67 -86 -84 -72 -11 -74 -12 -74 -40 0 -16 5 -52 11 -80 7 -32 7 -56 2 -61 -14 -14 -174 -42 -184 -32 -4 4 -22 89 -40 188 -17 99 -37 212 -44 250 -9 52 -9 73 -1 81 6 6 72 21 146 33 74 12 151 26 170 31 19 4 49 8 66 9 31 1 32 0 44 -64z m2725 -165 c6 -38 9 -40 41 -40 38 0 42 -9 17 -38 -17 -20 -21 -20 -98 -7 -44 8 -86 14 -92 14 -8 1 -13 16 -13 41 0 45 0 45 39 25 27 -13 30 -13 56 15 16 17 32 30 36 30 4 0 10 -18 14 -40z m-1275 -287 c0 -9 -5 -55 -12 -101 l-12 -83 -46 5 c-74 10 -505 45 -644 52 -132 7 -146 17 -41 29 33 3 213 30 400 60 187 29 343 53 348 54 4 1 7 -7 7 -16z m-1848 -181 c10 -10 -2 -268 -18 -388 l-5 -41 121 -8 c93 -5 123 -10 127 -22 3 -8 -7 -46 -22 -85 l-28 -70 -131 6 c-293 14 -306 16 -306 40 0 11 5 77 10 146 6 69 14 192 20 273 5 82 13 153 16 159 9 14 202 4 216 -10z m724 -36 c7 -6 39 -126 73 -266 34 -140 65 -264 70 -275 10 -23 13 4 31 230 6 77 14 176 18 220 l7 80 110 -3 c237 -7 348 -36 397 -104 18 -26 22 -46 23 -112 2 -97 -16 -147 -68 -193 -47 -41 -103 -56 -194 -51 -83 4 -83 4 -83 -95 0 -42 -4 -59 -15 -63 -9 -4 -73 -1 -143 5 -70 6 -166 13 -214 17 -95 7 -90 4 -103 77 l-6 38 -87 -3 -87 -3 -15 -42 -14 -43 -61 0 c-87 0 -165 11 -165 23 0 12 55 148 151 374 38 89 73 173 79 188 l10 26 137 -7 c80 -4 143 -11 149 -18z m1125 -75 c28 -11 66 -30 85 -43 40 -27 77 -96 72 -135 -3 -27 -5 -28 -58 -26 -111 5 -140 13 -150 38 -15 39 -82 47 -103 13 -17 -26 6 -44 92 -73 161 -53 218 -116 205 -223 -8 -68 -25 -100 -69 -131 -74 -51 -198 -65 -310 -36 -72 19 -117 46 -151 91 -27 35 -44 116 -27 127 4 3 51 2 102 -1 92 -7 95 -8 111 -37 13 -24 24 -31 57 -33 27 -2 44 2 53 13 23 27 0 47 -90 81 -143 54 -190 93 -205 175 -8 44 8 107 37 144 12 15 44 38 72 51 68 32 200 34 277 5z m459 -52 c118 -12 218 -26 221 -32 9 -13 -1 -129 -12 -141 -5 -5 -58 -4 -129 3 -67 7 -124 11 -126 8 -2 -2 -7 -17 -10 -34 -7 -34 -21 -29 150 -49 l59 -7 -6 -65 c-4 -36 -10 -69 -14 -73 -5 -4 -50 -3 -102 3 -101 12 -111 8 -111 -39 0 -25 6 -27 159 -43 52 -5 98 -13 103 -18 8 -8 -4 -138 -15 -148 -4 -4 -96 3 -204 15 -109 11 -210 21 -224 21 -14 0 -33 6 -43 13 -16 12 -17 21 -8 103 6 49 18 175 28 279 19 212 25 239 52 231 9 -3 114 -15 232 -27z"/>
<path d="M6700 4470 c-23 -23 -25 -55 -9 -148 17 -99 71 -140 119 -92 15 15 20 33 20 73 0 64 -25 157 -48 175 -24 18 -59 15 -82 -8z"/>
<path d="M5686 4304 c-28 -27 -14 -178 21 -231 19 -29 73 -31 96 -5 28 30 15 175 -19 230 -17 27 -74 30 -98 6z"/>
<path d="M5576 3419 c-32 -90 -29 -99 32 -99 23 0 32 4 32 17 0 29 -22 148 -29 155 -4 4 -19 -29 -35 -73z"/>
<path d="M6177 3445 c-13 -91 -12 -95 32 -95 50 0 71 21 71 69 0 44 -14 60 -63 68 l-34 5 -6 -47z"/>
<path d="M7294 4075 c-12 -30 4 -46 43 -43 28 2 39 8 41 22 2 10 -2 22 -10 27 -22 14 -68 10 -74 -6z"/>
<path d="M7422 4068 c-31 -31 9 -71 53 -54 25 9 18 45 -11 56 -31 12 -28 12 -42 -2z"/>
<path d="M7635 4018 c-38 -13 -90 -62 -110 -104 -8 -17 -15 -59 -15 -91 0 -113 82 -193 198 -193 69 0 109 18 154 68 137 152 -31 388 -227 320z m110 -62 l30 -13 -56 -7 c-43 -5 -63 -14 -83 -35 -39 -41 -45 -98 -16 -152 16 -33 18 -40 5 -29 -25 20 -55 85 -55 117 0 38 45 102 83 118 39 17 54 18 92 1z m97 -104 c11 -42 -4 -91 -37 -122 l-24 -23 19 39 c21 40 26 84 11 84 -13 0 -24 37 -16 50 13 21 39 5 47 -28z"/>
</g>
</svg>